# xmcd CD database file
#
# Track frame offsets:
#	150
#	24187
#	41352
#	65352
#	93615
#
# Disc length: 4440 seconds
#
# Revision: 0
# Processed by: cddbd v1.5PL3 Copyright (c) Steve Scherf et al.
# Submitted via: CDex 1.50beta9
#
DISCID=33115605
DTITLE=day after tomorrow - Stay in my heart
DYEAR=2003
DGENRE=J-POP
TTITLE0=Stay in my heart
TTITLE1=naturally
TTITLE2=Stay in my heart(instrumental)
TTITLE3=naturally(instrumental)
TTITLE4=DATA
EXTD=YEAR: 2003
EXTT0=
EXTT1=
EXTT2=
EXTT3=
EXTT4=
PLAYORDER=
